HIERARCHY
ROOT Hips
{
	OFFSET 0.00000 0.00000 0.00000
	CHANNELS 6 Xposition Yposition Zposition Zrotation Yrotation Xrotation 
	JOINT LHipJoint
	{
		OFFSET 0 0 0
		CHANNELS 3 Zrotation Yrotation Xrotation
		JOINT LeftHip
		{
			OFFSET 1.80322 -1.53100 0.99595
			CHANNELS 3 Zrotation Yrotation Xrotation
			JOINT LeftKnee
			{
				OFFSET 2.25177 -6.18669 0.00000
				CHANNELS 3 Zrotation Yrotation Xrotation
				JOINT LeftAnkle
				{
					OFFSET 2.26601 -6.22582 0.00000
					CHANNELS 3 Zrotation Yrotation Xrotation
					JOINT LeftToe
					{
						OFFSET 0.23701 -0.65119 2.15848
						CHANNELS 3 Zrotation Yrotation Xrotation
						End Site
						{
							OFFSET 0.00000 -0.00000 1.12949
						}
					}
				}
			}
		}
	}
	JOINT RHipJoint
	{
		OFFSET 0 0 0
		CHANNELS 3 Zrotation Yrotation Xrotation
		JOINT RightHip
		{
			OFFSET -1.93977 -1.53100 0.99595
			CHANNELS 3 Zrotation Yrotation Xrotation
			JOINT RightKnee
			{
				OFFSET -2.28036 -6.26523 0.00000
				CHANNELS 3 Zrotation Yrotation Xrotation
				JOINT RightAnkle
				{
					OFFSET -2.25490 -6.19528 0.00000
					CHANNELS 3 Zrotation Yrotation Xrotation
					JOINT RightToe
					{
						OFFSET -0.28375 -0.77960 2.23137
						CHANNELS 3 Zrotation Yrotation Xrotation
						End Site
						{
							OFFSET -0.00000 -0.00000 1.17899
						}
					}
				}
			}
		}
	}
	JOINT lowerback
	{
		OFFSET 0 0 0
		CHANNELS 3 Zrotation Yrotation Xrotation
		JOINT Chest
		{
			OFFSET -0.00088 2.12090 -0.02806
			CHANNELS 3 Zrotation Yrotation Xrotation
			JOINT Chest2
			{
				OFFSET -0.00286 2.09666 0.12974
				CHANNELS 3 Zrotation Yrotation Xrotation
				JOINT lowerneck
				{
					OFFSET 0 0 0
					CHANNELS 3 Zrotation Yrotation Xrotation
					JOINT Neck
					{
						OFFSET 0.07328 1.83526 0.07290
						CHANNELS 3 Zrotation Yrotation Xrotation
						JOINT Head
						{
							OFFSET -0.06683 1.74974 -0.49542
							CHANNELS 3 Zrotation Yrotation Xrotation
							End Site
							{
								OFFSET -0.03398 1.85163 -0.17573
							}
						}
					}
				}
				JOINT LeftCollar
				{
					OFFSET 0 0 0
					CHANNELS 3 Zrotation Yrotation Xrotation
					JOINT LeftShoulder
					{
						OFFSET 3.02113 1.18018 0.40602
CHANNELS 3 Zrotation Xrotation Yrotation
						JOINT LeftElbow
						{
OFFSET 0 -4.585380 -0.000000
CHANNELS 3 Zrotation Xrotation Yrotation
							JOINT LeftWrist
							{
OFFSET 0 -2.689350 -0.000000
CHANNELS 3 Zrotation Xrotation Yrotation
								JOINT lhand
								{
									OFFSET 0 0 0
CHANNELS 3 Zrotation Xrotation Yrotation
									JOINT LFingers
									{
OFFSET 0 -0.585060 -0.000000
CHANNELS 3 Zrotation Xrotation Yrotation
										End Site
										{
OFFSET 0 -0.471690 -0.000000
										}
									}
								}
								JOINT LThumb
								{
OFFSET 0 0.000000 0.000000
CHANNELS 3 Zrotation Xrotation Yrotation
									End Site
									{
OFFSET 0 -0.478890 0.478890
									}
								}
							}
						}
					}
				}
				JOINT RightCollar
				{
					OFFSET 0 0 0
					CHANNELS 3 Zrotation Yrotation Xrotation
					JOINT RightShoulder
					{
						OFFSET -2.95074 1.18843 0.31430
CHANNELS 3 Zrotation Xrotation Yrotation
						JOINT RightElbow
						{
OFFSET 0 -4.474500 -0.000000
CHANNELS 3 Zrotation Xrotation Yrotation
							JOINT RightWrist
							{
OFFSET 0 -2.938960 -0.000000
CHANNELS 3 Zrotation Xrotation Yrotation
								JOINT rhand
								{
									OFFSET 0 0 0
CHANNELS 3 Zrotation Xrotation Yrotation
									JOINT RFingers
									{
OFFSET 0 -0.405090 -0.000000
CHANNELS 3 Zrotation Xrotation Yrotation
										End Site
										{
OFFSET 0 -0.326600 -0.000000
										}
									}
								}
								JOINT RThumb
								{
OFFSET 0 0.000000 0.000000
CHANNELS 3 Zrotation Xrotation Yrotation
									End Site
									{
OFFSET 0 -0.331580 0.331580
									}
								}
							}
						}
					}
				}
			}
		}
	}
}
MOTION
Frames: 10
Frame Time: 0.008333333333333333
-0.274959 15.592572 22.111879 -184.005484 -7.721922 -167.726247 0.000000 0.000000 0.000000 -28.804512 -5.584166 10.375584 0.000000 0.000000 0.000000 0.430754 0.521008 -12.597906 0.003444 -0.349952 -0.961542 0.000000 0.000000 0.000000 10.078663 18.281574 -34.710619 -2.181901 -9.234842 26.532879 -0.425944 -11.011241 -20.793512 -0.085243 1.881585 -5.178470 -3.253013 -1.590376 -4.751646 0.094234 -2.410498 -5.324786 1.867160 -1.255809 -2.701118 10.327751 6.793957 -14.311178 -5.253824 5.452027 37.698270 -3.516040 1.788017 16.482875 0.000000 0.000000 0.000000 4.210271 10.237371 -22.048440 23.350540 -34.468881 7.336195 5.143772 19.079832 -13.299545 0.000000 0.000000 0.000000 -7.125000 0.000000 0.000000 -19.876961 42.428560 -1.318227 0.000000 0.000000 0.000000 -8.835961 9.517682 -2.367030 -11.431065 -18.946009 -1.913561 -10.683452 20.789404 5.574541 0.000000 0.000000 0.000000 7.125000 0.000000 0.000000 13.294504 35.386440 3.211394
-0.129267 15.635105 21.125546 -183.045484 -8.994915 -168.101793 0.000000 0.000000 0.000000 -26.374978 -3.730452 13.714098 0.000000 0.000000 0.000000 0.240623 0.252326 -9.354334 0.200852 -2.880706 -7.947199 0.000000 0.000000 0.000000 13.177532 16.784153 -32.331517 -2.502642 -9.842717 28.468928 -0.101661 -9.912269 -15.677482 -0.048274 1.415556 -3.893116 -1.678914 -1.802490 -5.518324 0.736853 -2.762358 -5.691529 1.619386 -1.491839 -2.668326 9.459328 6.816618 -13.962570 -5.518432 5.529501 39.021607 -3.580191 1.523922 17.082396 0.000000 0.000000 0.000000 3.000181 12.495953 -17.697024 19.457137 -29.982044 5.257655 4.491351 22.243107 -12.551405 0.000000 0.000000 0.000000 -7.125000 0.000000 0.000000 -20.189273 41.660745 -1.742297 0.000000 0.000000 0.000000 -9.424805 11.889610 -3.751596 -11.190267 -18.579269 -1.836078 -10.387679 21.446835 5.541268 0.000000 0.000000 0.000000 7.125000 0.000000 0.000000 13.529255 35.338189 3.287158
0.033990 15.732220 20.150936 -181.931538 -9.534352 -168.336706 0.000000 0.000000 0.000000 -23.787100 -3.915628 5.677627 1.146906 6.796315 19.114835 0.217499 -1.918252 -8.347071 0.485653 -4.468401 -12.398372 0.000000 0.000000 0.000000 16.969811 15.766777 -28.204667 -2.470314 -9.783647 28.279067 -0.230706 -8.278950 -15.568831 -0.005809 -0.488047 1.341187 0.060965 -1.742665 -6.524769 0.935584 -2.823841 -6.131371 0.823330 -1.615035 -2.630940 9.274246 7.020966 -13.157770 -5.301335 5.496380 40.130458 -3.558911 1.384282 17.483092 0.000000 0.000000 0.000000 2.673704 15.051979 -11.872916 16.655853 -26.401763 3.933137 3.269251 24.690291 -12.742315 0.000000 0.000000 0.000000 -7.125000 0.000000 0.000000 -21.287673 41.722403 -1.812782 0.000000 0.000000 0.000000 -9.390360 11.955859 -7.381779 -10.213372 -17.072550 -1.537009 -9.870625 25.498748 5.700961 0.000000 0.000000 0.000000 7.125000 0.000000 0.000000 13.979908 35.468689 3.356423
0.201777 15.856709 19.294943 -180.281424 -11.438152 -168.783891 0.000000 0.000000 0.000000 -19.838438 -5.225269 -5.341123 4.840484 13.198463 40.121858 0.003723 0.830581 1.105792 0.049619 -1.430159 -3.933399 0.000000 0.000000 0.000000 21.622775 12.362664 -22.386927 -1.743741 -8.310002 23.660085 -0.303712 -7.805665 -16.058955 -0.029614 -1.110198 3.052211 2.086835 -1.911398 -6.423013 1.235579 -3.158058 -6.393547 0.006419 -1.867601 -3.046490 9.017807 6.995162 -12.911362 -4.911152 5.178309 40.851053 -3.452662 1.200562 17.772512 0.000000 0.000000 0.000000 3.058664 16.625137 -8.399220 15.638718 -25.028348 3.491739 1.661897 26.304337 -12.645955 0.000000 0.000000 0.000000 -7.125000 0.000000 0.000000 -22.608337 41.478749 -2.083302 0.000000 0.000000 0.000000 -9.593023 10.820129 -6.722414 -10.226028 -17.092255 -1.540749 -9.638134 25.151059 6.072767 0.000000 0.000000 0.000000 7.125000 0.000000 0.000000 14.240639 35.821736 3.296142
0.317805 15.914140 18.569260 -179.057664 -11.967477 -169.175805 0.000000 0.000000 0.000000 -17.294275 -6.205524 -16.695473 9.294168 16.991742 57.099535 -0.194401 7.952729 -1.226293 0.002280 0.302775 0.831875 0.000000 0.000000 0.000000 25.008937 9.760011 -17.227756 -1.127364 -6.743808 18.958694 -0.339859 -7.296930 -16.033550 -0.054220 -1.502810 4.133543 3.420084 -1.365955 -5.664971 1.339813 -2.418358 -6.260514 -0.578312 -1.535710 -3.370514 8.433735 6.451927 -13.353588 -4.544734 4.397331 40.915492 -3.314485 0.871192 17.791439 0.000000 0.000000 0.000000 3.596748 16.947278 -9.363994 16.627867 -26.364474 3.920778 2.252709 24.584950 -12.789755 0.000000 0.000000 0.000000 -7.125000 0.000000 0.000000 -22.161484 41.668448 -1.927165 0.000000 0.000000 0.000000 -10.627831 9.592179 0.581748 -11.511804 -19.068304 -1.939886 -10.721457 18.910812 6.816804 0.000000 0.000000 0.000000 7.125000 0.000000 0.000000 13.496999 36.616993 2.846802
0.385579 15.884012 17.887281 -179.003990 -11.507984 -169.403144 0.000000 0.000000 0.000000 -17.049646 -8.322795 -25.270385 10.800346 17.836020 62.131477 -0.169252 9.197297 -9.338526 0.008123 -0.570765 -1.568458 0.000000 0.000000 0.000000 26.488214 7.974227 -14.273549 -1.059892 -6.545769 18.376452 -0.529268 -6.413093 -17.567795 -0.055611 -1.521454 4.184801 3.624339 -0.557063 -5.096658 0.861457 -1.266899 -5.903444 -1.155134 -0.944048 -3.289640 8.067012 5.841043 -13.472533 -4.063439 3.431042 40.790553 -3.183079 0.526197 17.617682 0.000000 0.000000 0.000000 4.245721 16.749595 -11.808515 18.698649 -29.042119 4.883897 4.503943 21.096683 -12.754120 0.000000 0.000000 0.000000 -7.125000 0.000000 0.000000 -20.244384 41.852506 -1.646823 0.000000 0.000000 0.000000 -11.462780 6.709293 6.023105 -12.259185 -20.192179 -2.190968 -11.824528 16.918515 7.083445 0.000000 0.000000 0.000000 7.125000 0.000000 0.000000 12.636041 36.948229 2.552783
0.399639 15.761755 17.215187 -178.552167 -10.793271 -169.382509 0.000000 0.000000 0.000000 -16.531064 -11.718397 -31.132755 9.108979 16.875829 56.464042 0.282619 9.151250 -17.192257 0.092342 -1.959096 -5.392664 0.000000 0.000000 0.000000 27.877668 7.143616 -12.875303 -1.313522 -7.259316 20.485880 -0.856770 -5.308538 -20.190766 -0.087200 -1.904680 5.242306 4.439320 0.210266 -4.732105 0.385770 -0.227136 -5.762829 -2.080975 -0.451436 -3.308434 7.961453 5.511749 -13.336609 -3.658318 2.800436 40.767471 -3.084850 0.322466 17.496778 0.000000 0.000000 0.000000 4.723286 16.717422 -13.789616 20.847245 -31.649380 5.969664 5.431741 18.253464 -12.323131 0.000000 0.000000 0.000000 -7.125000 0.000000 0.000000 -19.317598 41.534743 -1.723093 0.000000 0.000000 0.000000 -11.671761 3.041914 9.923214 -12.801859 -20.996210 -2.381821 -11.598911 15.625776 7.025449 0.000000 0.000000 0.000000 7.125000 0.000000 0.000000 12.811963 36.876748 2.612772
0.363888 15.691040 16.487673 -177.890169 -10.077503 -169.109958 0.000000 0.000000 0.000000 -15.144417 -15.359576 -33.516654 5.429933 13.849391 42.643071 0.499882 11.079665 -21.604291 0.106985 -2.109328 -5.807829 0.000000 0.000000 0.000000 29.324319 6.027663 -9.753790 -1.140329 -6.780891 19.068110 -0.957881 -4.959617 -20.918786 -0.128919 -2.314759 6.376275 5.228501 0.756958 -4.745188 0.113821 0.484956 -5.681551 -2.791580 -0.122517 -3.164777 7.840407 5.266868 -13.671764 -3.230010 2.346806 40.606793 -2.929513 0.212165 17.439868 0.000000 0.000000 0.000000 4.718395 16.542973 -14.464583 21.819537 -32.772456 6.487919 5.548777 17.419286 -12.043855 0.000000 0.000000 0.000000 -7.125000 0.000000 0.000000 -19.131658 41.281322 -1.830069 0.000000 0.000000 0.000000 -11.522222 -0.092058 14.718086 -13.929445 -22.633713 -2.800890 -11.658602 13.082847 8.531297 0.000000 0.000000 0.000000 7.125000 0.000000 0.000000 13.062891 38.376348 2.175063
0.285182 15.650231 15.695963 -176.570347 -9.287825 -168.710349 0.000000 0.000000 0.000000 -11.854062 -18.947392 -33.913913 2.404057 9.661103 27.886197 0.512324 12.286728 -22.988036 0.101834 -2.057312 -5.664129 0.000000 0.000000 0.000000 31.161737 3.649766 -4.685552 -0.551065 -4.755267 13.211832 -0.851268 -4.065104 -19.359897 -0.120649 -2.239122 6.166879 6.072207 1.212904 -5.442471 0.313026 0.992024 -5.716815 -3.037572 0.099422 -2.762830 7.861154 5.194871 -13.929313 -3.066410 2.195179 40.515918 -2.876149 0.194921 17.440945 0.000000 0.000000 0.000000 4.290095 16.402456 -13.843343 21.144141 -31.996284 6.126176 5.004247 18.084611 -11.874321 0.000000 0.000000 0.000000 -7.125000 0.000000 0.000000 -19.541051 41.070919 -1.978997 0.000000 0.000000 0.000000 -10.876310 -2.675265 18.408031 -14.934245 -24.054408 -3.199097 -11.593195 10.857501 8.200515 0.000000 0.000000 0.000000 7.125000 0.000000 0.000000 13.049369 38.043314 2.281711
0.164455 15.593607 14.863797 -175.480693 -8.077529 -168.334115 0.000000 0.000000 0.000000 -8.000118 -22.290193 -34.369691 1.328603 7.299132 20.604749 0.776829 10.956913 -23.991083 0.213314 -2.973115 -8.203990 0.000000 0.000000 0.000000 32.190329 1.228519 2.744914 -0.048096 -1.394089 3.834221 -0.535120 -3.772502 -15.708333 -0.062187 -1.608399 4.424505 6.356238 1.644763 -5.974377 0.438705 1.477026 -5.913790 -3.039903 0.312224 -2.622439 8.081187 5.204341 -14.108932 -2.899022 2.109311 40.363554 -2.842926 0.231541 17.401306 0.000000 0.000000 0.000000 4.311699 16.586407 -12.577248 19.774138 -30.369103 5.416676 3.848399 19.759593 -11.932505 0.000000 0.000000 0.000000 -7.125000 0.000000 0.000000 -20.534623 41.019981 -2.116698 0.000000 0.000000 0.000000 -9.548774 -3.145469 22.116812 -16.510621 -26.208013 -3.868736 -11.615675 8.340417 8.415288 0.000000 0.000000 0.000000 7.125000 0.000000 0.000000 13.074699 38.258158 2.215932
